<?xml version="1.0" standalone="no"?>
<!DOCTYPE svg PUBLIC "-//W3C//DTD SVG 20010904//EN"
 "http://www.w3.org/TR/2001/REC-SVG-20010904/DTD/svg10.dtd">
<svg version="1.0" xmlns="http://www.w3.org/2000/svg"
 width="96.000000pt" height="96.000000pt" viewBox="0 0 96.000000 96.000000"
 preserveAspectRatio="xMidYMid meet">

<g transform="translate(0.000000,96.000000) scale(0.100000,-0.100000)"
fill="#000000" stroke="none">
<path d="M123 750 c-91 -14 -83 11 -83 -270 0 -235 1 -251 18 -246 110 33 203
33 401 0 163 -28 366 -36 426 -17 l30 9 3 253 c2 237 1 252 -15 247 -108 -33
-186 -33 -395 -2 -194 30 -314 38 -385 26z m175 -298 l-4 -47 -17 37 c-22 48
-22 91 1 131 l17 32 3 -53 c2 -29 2 -74 0 -100z"/>
</g>
</svg>
